# xmcd
#
# Track frame offsets:
#	150
#	12039
#	45653
#	69348
#	72869
#	96105
#	123254
#	143552
#	160842
#	192315
#	223564
#	256283
#	263405
#
# Disc length: 3797 seconds
#
# Revision: 1
# Processed by: cddbd v1.4b41PL3 Copyright (c) Steve Scherf et al.
# Submitted via: audiograbber 1.80
#
DISCID=a90ed30d
DTITLE=Silk - Love Session
DYEAR=1900
DGENRE=
TTITLE0=Welcome 2 The Love Session (Interlude)
TTITLE1=We're Callin You
TTITLE2=Love Session
TTITLE3=Nursery Rhymes (Intro)
TTITLE4=Nursery Rhymes
TTITLE5=Ebony Eyes
TTITLE6=Treated Like A Lady
TTITLE7=Ahh
TTITLE8=I Didn't Mean To
TTITLE9=Don't Go
TTITLE10=I'm Sorry
TTITLE11=Return Part 2 (Interlude)
TTITLE12=Afterplay
EXTD=
EXTT0=
EXTT1=
EXTT2=
EXTT3=
EXTT4=
EXTT5=
EXTT6=
EXTT7=
EXTT8=
EXTT9=
EXTT10=
EXTT11=
EXTT12=
PLAYORDER=
